<?xml version="1.0" encoding="UTF-8"?>
<svg fill="none" viewBox="0 0 24 24" xmlns="http://www.w3.org/2000/svg">
<path d="m11 20-.469.586a.75.75 0 0 0 .938 0L11 20Zm0 0 .469.585.002-.001a.117.117 0 0 0 .004-.004l.016-.012a10.023 10.023 0 0 0 .257-.216 23.93 23.93 0 0 0 2.835-2.93c1.529-1.885 3.167-4.556 3.167-7.422h-1.5c0 2.334-1.361 4.663-2.833 6.478a22.413 22.413 0 0 1-2.649 2.737 12.407 12.407 0 0 1-.224.19l-.01.008-.003.001L11 20Zm6.75-10A6.75 6.75 0 0 0 11 3.25v1.5c2.9 0 5.25 2.35 5.25 5.25h1.5ZM11 3.25A6.75 6.75 0 0 0 4.25 10h1.5c0-2.9 2.35-5.25 5.25-5.25v-1.5ZM4.25 10c0 2.866 1.638 5.537 3.167 7.422a23.928 23.928 0 0 0 2.835 2.93 14.263 14.263 0 0 0 .257.216l.016.012a.117.117 0 0 0 .004.004h.002v.001L11 20l.469-.585-.002-.002-.01-.009a6.972 6.972 0 0 1-.225-.189 22.413 22.413 0 0 1-2.65-2.738C7.113 14.664 5.75 12.335 5.75 10h-1.5ZM11 13.15A3.15 3.15 0 0 0 14.15 10h-1.5A1.65 1.65 0 0 1 11 11.65v1.5ZM14.15 10A3.15 3.15 0 0 0 11 6.85v1.5c.911 0 1.65.739 1.65 1.65h1.5ZM11 6.85A3.15 3.15 0 0 0 7.85 10h1.5c0-.911.739-1.65 1.65-1.65v-1.5ZM7.85 10A3.15 3.15 0 0 0 11 13.15v-1.5A1.65 1.65 0 0 1 9.35 10h-1.5Z" fill="#232F3E"/>
</svg>